<?xml version="1.0" encoding="UTF-8"?>
<!DOCTYPE svg PUBLIC "-//W3C//DTD SVG 1.1//EN" "http://www.w3.org/Graphics/SVG/1.1/DTD/svg11.dtd">
<svg xmlns="http://www.w3.org/2000/svg" version="1.1" width="180px" height="180px" style="shape-rendering:geometricPrecision; text-rendering:geometricPrecision; image-rendering:optimizeQuality; fill-rule:evenodd; clip-rule:evenodd" xmlns:xlink="http://www.w3.org/1999/xlink">
<g><path style="opacity:0.983" fill="#54fda8" d="M 73.5,-0.5 C 84.1667,-0.5 94.8333,-0.5 105.5,-0.5C 145.167,9.16667 169.833,33.8333 179.5,73.5C 179.5,84.1667 179.5,94.8333 179.5,105.5C 169.833,145.167 145.167,169.833 105.5,179.5C 94.8333,179.5 84.1667,179.5 73.5,179.5C 33.8333,169.833 9.16667,145.167 -0.5,105.5C -0.5,94.8333 -0.5,84.1667 -0.5,73.5C 9.16667,33.8333 33.8333,9.16667 73.5,-0.5 Z"/></g>
<g><path style="opacity:1" fill="#010402" d="M 58.5,71.5 C 57.5093,77.979 57.176,84.6457 57.5,91.5C 58.791,91.7373 59.791,91.404 60.5,90.5C 67.1884,89.8825 73.8551,89.3825 80.5,89C 82.0406,94.9334 81.7072,100.767 79.5,106.5C 71.6642,107.875 63.9976,107.208 56.5,104.5C 56.068,110.554 55.2347,116.554 54,122.5C 50.0928,130.811 43.5928,133.977 34.5,132C 25.5301,129.223 23.3635,123.723 28,115.5C 28.7387,114.426 29.7387,113.759 31,113.5C 32.8003,114.32 34.6336,114.986 36.5,115.5C 36.56,116.043 36.8933,116.376 37.5,116.5C 38.8147,111.014 38.8147,105.68 37.5,100.5C 36.9724,88.8383 36.4724,77.1716 36,65.5C 33.3333,64.8333 30.6667,64.1667 28,63.5C 26.6752,59.5715 26.3418,55.5715 27,51.5C 33.8388,48.5986 41.0055,47.0986 48.5,47C 58.1667,46.3333 67.8333,46.3333 77.5,47C 81.4402,48.8865 84.9402,51.3865 88,54.5C 88.235,63.129 86.4016,71.2957 82.5,79C 78.4516,80.7932 74.4516,80.7932 70.5,79C 69.7409,74.5288 68.9076,70.0288 68,65.5C 64.9433,64.5495 61.7766,64.2161 58.5,64.5C 58.5,66.8333 58.5,69.1667 58.5,71.5 Z"/></g>
<g><path style="opacity:1" fill="#010402" d="M 129.5,67.5 C 127.19,66.8362 124.69,66.5029 122,66.5C 119.071,66.5248 116.571,67.1914 114.5,68.5C 112.486,79.3646 111.986,90.3646 113,101.5C 113.622,105.612 114.622,109.612 116,113.5C 120.746,114.811 124.746,113.477 128,109.5C 128.615,107.884 129.615,106.551 131,105.5C 131.388,102.151 131.221,98.8175 130.5,95.5C 136.371,93.6774 142.371,93.1774 148.5,94C 150.329,94.2735 151.829,95.1068 153,96.5C 151.334,108.172 149.501,119.839 147.5,131.5C 142.871,132.481 138.204,132.648 133.5,132C 132.859,127.548 132.192,123.048 131.5,118.5C 127.946,124.551 122.946,129.051 116.5,132C 108.978,133.604 102.811,131.437 98,125.5C 93.343,118.196 90.6763,110.196 90,101.5C 88.6344,89.2511 89.6344,77.2511 93,65.5C 101.268,50.1175 114.101,43.9508 131.5,47C 140.142,46.3845 146.975,49.5512 152,56.5C 151.624,66.0184 149.957,75.3517 147,84.5C 142.522,87.8491 137.688,88.3491 132.5,86C 131.693,80.917 131.193,75.7503 131,70.5C 130.768,69.2625 130.268,68.2625 129.5,67.5 Z"/></g>
<g><path style="opacity:1" fill="#3cb377" d="M 129.5,67.5 C 124.405,67.2213 119.405,67.5546 114.5,68.5C 116.571,67.1914 119.071,66.5248 122,66.5C 124.69,66.5029 127.19,66.8362 129.5,67.5 Z"/></g>
<g><path style="opacity:1" fill="#39a971" d="M 58.5,71.5 C 57.8771,78.2547 58.5437,84.588 60.5,90.5C 59.791,91.404 58.791,91.7373 57.5,91.5C 57.176,84.6457 57.5093,77.979 58.5,71.5 Z"/></g>
<g><path style="opacity:1" fill="#36a26c" d="M 37.5,100.5 C 38.8147,105.68 38.8147,111.014 37.5,116.5C 36.8933,116.376 36.56,116.043 36.5,115.5C 37.4872,110.695 37.8205,105.695 37.5,100.5 Z"/></g>
</svg>
