<?xml version="1.0" encoding="UTF-8"?>
<!DOCTYPE svg PUBLIC "-//W3C//DTD SVG 1.1//EN" "http://www.w3.org/Graphics/SVG/1.1/DTD/svg11.dtd">
<svg xmlns="http://www.w3.org/2000/svg" version="1.1" width="32px" height="32px" style="shape-rendering:geometricPrecision; text-rendering:geometricPrecision; image-rendering:optimizeQuality; fill-rule:evenodd; clip-rule:evenodd" xmlns:xlink="http://www.w3.org/1999/xlink">
<g><path style="opacity:0.927" fill="#52f6a4" d="M 9.5,-0.5 C 13.5,-0.5 17.5,-0.5 21.5,-0.5C 25.8333,1.83333 29.1667,5.16667 31.5,9.5C 31.5,13.5 31.5,17.5 31.5,21.5C 29.1667,25.8333 25.8333,29.1667 21.5,31.5C 17.5,31.5 13.5,31.5 9.5,31.5C 5.16667,29.1667 1.83333,25.8333 -0.5,21.5C -0.5,17.5 -0.5,13.5 -0.5,9.5C 1.83333,5.16667 5.16667,1.83333 9.5,-0.5 Z"/></g>
<g><path style="opacity:1" fill="#0e1912" d="M 5.5,7.5 C 8.1873,7.33591 10.854,7.50258 13.5,8C 14.7014,8.90252 15.5348,10.0692 16,11.5C 17.8208,8.00926 20.6542,6.84259 24.5,8C 26.229,9.7889 26.8957,11.9556 26.5,14.5C 25.1667,14.5 23.8333,14.5 22.5,14.5C 22.5,13.5 22.5,12.5 22.5,11.5C 21.5,11.5 20.5,11.5 19.5,11.5C 19.5,14.1667 19.5,16.8333 19.5,19.5C 20.5,19.5 21.5,19.5 22.5,19.5C 22.5,18.5 22.5,17.5 22.5,16.5C 23.8333,16.5 25.1667,16.5 26.5,16.5C 26.6104,19.0588 25.9438,21.3921 24.5,23.5C 23.7492,22.624 23.2492,21.624 23,20.5C 20.1399,24.5833 17.8065,24.25 16,19.5C 15.6667,17.1667 15.3333,14.8333 15,12.5C 13.2493,13.8088 11.7493,13.4755 10.5,11.5C 9.57131,12.6888 9.23798,14.0222 9.5,15.5C 10.8333,15.5 12.1667,15.5 13.5,15.5C 13.5,16.5 13.5,17.5 13.5,18.5C 12.1667,18.5 10.8333,18.5 9.5,18.5C 9.7035,20.3904 9.03683,21.8904 7.5,23C 6.03467,23.6013 5.03467,23.1013 4.5,21.5C 7.16667,17.5 7.16667,13.5 4.5,9.5C 4.86273,8.81654 5.19607,8.14987 5.5,7.5 Z"/></g>
</svg>
