<?xml version="1.0" standalone="no"?>
<!DOCTYPE svg PUBLIC "-//W3C//DTD SVG 20010904//EN"
 "http://www.w3.org/TR/2001/REC-SVG-20010904/DTD/svg10.dtd">
<svg version="1.0" xmlns="http://www.w3.org/2000/svg"
 width="32.000000pt" height="32.000000pt" viewBox="0 0 32.000000 32.000000"
 preserveAspectRatio="xMidYMid meet">

<g transform="translate(0.000000,32.000000) scale(0.100000,-0.100000)"
fill="#000000" stroke="none">
<path d="M95 306 c-101 -44 -125 -178 -46 -257 65 -65 157 -65 222 0 124 124
-15 327 -176 257z m54 -80 c6 -7 9 -21 5 -30 -7 -17 -34 -22 -34 -6 0 6 -4 10
-10 10 -5 0 -10 -9 -10 -20 0 -15 7 -20 26 -20 30 0 28 -23 -2 -28 -11 -2 -24
-13 -29 -25 -12 -27 -38 -29 -43 -3 -3 11 0 16 7 12 7 -5 11 8 11 38 0 25 -4
46 -10 46 -17 0 -11 28 8 33 35 9 70 7 81 -7z m99 8 c23 -7 29 -37 13 -63 -10
-16 -31 -6 -31 15 0 8 -7 14 -15 14 -11 0 -15 -11 -15 -40 0 -29 4 -40 15 -40
8 0 15 7 15 15 0 8 9 15 20 15 22 0 27 -33 10 -60 -9 -13 -11 -13 -19 -1 -8
13 -12 13 -26 1 -15 -13 -20 -11 -36 9 -34 41 -21 119 21 134 21 7 22 7 48 1z"/>
</g>
</svg>
