<?xml version="1.0" standalone="no"?>
<!DOCTYPE svg PUBLIC "-//W3C//DTD SVG 20010904//EN"
 "http://www.w3.org/TR/2001/REC-SVG-20010904/DTD/svg10.dtd">
<svg version="1.0" xmlns="http://www.w3.org/2000/svg"
 width="32.000000pt" height="32.000000pt" viewBox="0 0 32.000000 32.000000"
 preserveAspectRatio="xMidYMid meet">

<g transform="translate(0.000000,32.000000) scale(0.100000,-0.100000)"
fill="#000000" stroke="none">
<path d="M68 233 c-19 -5 -25 -33 -8 -33 6 0 10 -21 10 -46 0 -30 -4 -43 -11
-38 -7 4 -10 -1 -7 -12 5 -26 31 -24 43 3 5 12 18 23 29 25 30 5 32 28 2 28
-19 0 -26 5 -26 20 0 11 5 20 10 20 6 0 10 -4 10 -10 0 -16 27 -11 34 6 13 34
-29 52 -86 37z"/>
<path d="M200 233 c-42 -15 -55 -93 -21 -134 16 -20 21 -22 36 -9 14 12 18 12
26 -1 8 -12 10 -12 19 1 17 27 12 60 -10 60 -11 0 -20 -7 -20 -15 0 -8 -7 -15
-15 -15 -11 0 -15 11 -15 40 0 29 4 40 15 40 8 0 15 -6 15 -14 0 -21 21 -31
31 -15 28 44 -9 81 -61 62z"/>
</g>
</svg>
