<?xml version="1.0" standalone="no"?>
<!DOCTYPE svg PUBLIC "-//W3C//DTD SVG 20010904//EN"
 "http://www.w3.org/TR/2001/REC-SVG-20010904/DTD/svg10.dtd">
<svg version="1.0" xmlns="http://www.w3.org/2000/svg"
 width="32.000000pt" height="32.000000pt" viewBox="0 0 32.000000 32.000000"
 preserveAspectRatio="xMidYMid meet">

<g transform="translate(0.000000,32.000000) scale(0.100000,-0.100000)"
fill="#000000" stroke="none">
<path d="M62 232 c-10 -7 -10 -18 0 -56 10 -39 10 -49 -1 -56 -17 -10 -6 -43
12 -38 6 3 16 14 22 26 6 13 19 22 32 22 14 0 23 6 23 15 0 9 -9 15 -25 15
-27 0 -30 7 -15 30 8 12 10 12 10 1 0 -8 7 -11 20 -8 17 4 20 0 20 -32 0 -48
31 -81 56 -61 13 11 17 11 24 1 12 -21 30 -3 30 30 0 22 -5 29 -20 29 -12 0
-20 -7 -20 -16 0 -32 -25 -6 -28 29 -2 27 1 37 11 37 8 0 17 -9 20 -21 8 -29
31 -19 35 16 6 46 -50 63 -88 25 -14 -14 -20 -16 -20 -6 0 24 -68 36 -98 18z"/>
</g>
</svg>
